<svg xmlns="http://www.w3.org/2000/svg" viewBox="0 0 800 900" width="800" height="900">
  <defs>
    <radialGradient id="centerGlow" cx="50%" cy="50%" r="55%">
      <stop offset="0%" stop-color="#2e5c3e" stop-opacity="0.5"/>
      <stop offset="100%" stop-color="#1a3326" stop-opacity="1"/>
    </radialGradient>
    <radialGradient id="topGlow" cx="50%" cy="0%" r="60%">
      <stop offset="0%" stop-color="#3a6e4a" stop-opacity="0.4"/>
      <stop offset="100%" stop-color="#1a3326" stop-opacity="0"/>
    </radialGradient>
    <radialGradient id="botGlow" cx="50%" cy="100%" r="60%">
      <stop offset="0%" stop-color="#3a6e4a" stop-opacity="0.35"/>
      <stop offset="100%" stop-color="#1a3326" stop-opacity="0"/>
    </radialGradient>
  </defs>

  <!-- Base: lighter dark green -->
  <rect width="800" height="900" fill="#1a3326"/>
  <rect width="800" height="900" fill="url(#centerGlow)"/>
  <rect width="800" height="900" fill="url(#topGlow)"/>
  <rect width="800" height="900" fill="url(#botGlow)"/>

  <!-- Dot grid — slightly brighter dots -->
  <g opacity="0.28" fill="#5a9e72">
    <circle cx="40" cy="40" r="1.2"/><circle cx="80" cy="40" r="1.2"/><circle cx="120" cy="40" r="1.2"/><circle cx="160" cy="40" r="1.2"/><circle cx="200" cy="40" r="1.2"/><circle cx="240" cy="40" r="1.2"/><circle cx="280" cy="40" r="1.2"/><circle cx="320" cy="40" r="1.2"/><circle cx="360" cy="40" r="1.2"/><circle cx="400" cy="40" r="1.2"/><circle cx="440" cy="40" r="1.2"/><circle cx="480" cy="40" r="1.2"/><circle cx="520" cy="40" r="1.2"/><circle cx="560" cy="40" r="1.2"/><circle cx="600" cy="40" r="1.2"/><circle cx="640" cy="40" r="1.2"/><circle cx="680" cy="40" r="1.2"/><circle cx="720" cy="40" r="1.2"/><circle cx="760" cy="40" r="1.2"/>
    <circle cx="40" cy="80" r="1.2"/><circle cx="80" cy="80" r="1.2"/><circle cx="120" cy="80" r="1.2"/><circle cx="160" cy="80" r="1.2"/><circle cx="200" cy="80" r="1.2"/><circle cx="240" cy="80" r="1.2"/><circle cx="280" cy="80" r="1.2"/><circle cx="320" cy="80" r="1.2"/><circle cx="360" cy="80" r="1.2"/><circle cx="400" cy="80" r="1.2"/><circle cx="440" cy="80" r="1.2"/><circle cx="480" cy="80" r="1.2"/><circle cx="520" cy="80" r="1.2"/><circle cx="560" cy="80" r="1.2"/><circle cx="600" cy="80" r="1.2"/><circle cx="640" cy="80" r="1.2"/><circle cx="680" cy="80" r="1.2"/><circle cx="720" cy="80" r="1.2"/><circle cx="760" cy="80" r="1.2"/>
    <circle cx="40" cy="120" r="1.2"/><circle cx="80" cy="120" r="1.2"/><circle cx="120" cy="120" r="1.2"/><circle cx="160" cy="120" r="1.2"/><circle cx="200" cy="120" r="1.2"/><circle cx="240" cy="120" r="1.2"/><circle cx="280" cy="120" r="1.2"/><circle cx="320" cy="120" r="1.2"/><circle cx="360" cy="120" r="1.2"/><circle cx="400" cy="120" r="1.2"/><circle cx="440" cy="120" r="1.2"/><circle cx="480" cy="120" r="1.2"/><circle cx="520" cy="120" r="1.2"/><circle cx="560" cy="120" r="1.2"/><circle cx="600" cy="120" r="1.2"/><circle cx="640" cy="120" r="1.2"/><circle cx="680" cy="120" r="1.2"/><circle cx="720" cy="120" r="1.2"/><circle cx="760" cy="120" r="1.2"/>
    <circle cx="40" cy="160" r="1.2"/><circle cx="80" cy="160" r="1.2"/><circle cx="120" cy="160" r="1.2"/><circle cx="160" cy="160" r="1.2"/><circle cx="200" cy="160" r="1.2"/><circle cx="240" cy="160" r="1.2"/><circle cx="280" cy="160" r="1.2"/><circle cx="320" cy="160" r="1.2"/><circle cx="360" cy="160" r="1.2"/><circle cx="400" cy="160" r="1.2"/><circle cx="440" cy="160" r="1.2"/><circle cx="480" cy="160" r="1.2"/><circle cx="520" cy="160" r="1.2"/><circle cx="560" cy="160" r="1.2"/><circle cx="600" cy="160" r="1.2"/><circle cx="640" cy="160" r="1.2"/><circle cx="680" cy="160" r="1.2"/><circle cx="720" cy="160" r="1.2"/><circle cx="760" cy="160" r="1.2"/>
    <circle cx="40" cy="200" r="1.2"/><circle cx="80" cy="200" r="1.2"/><circle cx="120" cy="200" r="1.2"/><circle cx="160" cy="200" r="1.2"/><circle cx="200" cy="200" r="1.2"/><circle cx="240" cy="200" r="1.2"/><circle cx="280" cy="200" r="1.2"/><circle cx="320" cy="200" r="1.2"/><circle cx="360" cy="200" r="1.2"/><circle cx="400" cy="200" r="1.2"/><circle cx="440" cy="200" r="1.2"/><circle cx="480" cy="200" r="1.2"/><circle cx="520" cy="200" r="1.2"/><circle cx="560" cy="200" r="1.2"/><circle cx="600" cy="200" r="1.2"/><circle cx="640" cy="200" r="1.2"/><circle cx="680" cy="200" r="1.2"/><circle cx="720" cy="200" r="1.2"/><circle cx="760" cy="200" r="1.2"/>
    <circle cx="40" cy="240" r="1.2"/><circle cx="80" cy="240" r="1.2"/><circle cx="120" cy="240" r="1.2"/><circle cx="160" cy="240" r="1.2"/><circle cx="200" cy="240" r="1.2"/><circle cx="240" cy="240" r="1.2"/><circle cx="280" cy="240" r="1.2"/><circle cx="320" cy="240" r="1.2"/><circle cx="360" cy="240" r="1.2"/><circle cx="400" cy="240" r="1.2"/><circle cx="440" cy="240" r="1.2"/><circle cx="480" cy="240" r="1.2"/><circle cx="520" cy="240" r="1.2"/><circle cx="560" cy="240" r="1.2"/><circle cx="600" cy="240" r="1.2"/><circle cx="640" cy="240" r="1.2"/><circle cx="680" cy="240" r="1.2"/><circle cx="720" cy="240" r="1.2"/><circle cx="760" cy="240" r="1.2"/>
    <circle cx="40" cy="280" r="1.2"/><circle cx="80" cy="280" r="1.2"/><circle cx="120" cy="280" r="1.2"/><circle cx="160" cy="280" r="1.2"/><circle cx="200" cy="280" r="1.2"/><circle cx="240" cy="280" r="1.2"/><circle cx="280" cy="280" r="1.2"/><circle cx="320" cy="280" r="1.2"/><circle cx="360" cy="280" r="1.2"/><circle cx="400" cy="280" r="1.2"/><circle cx="440" cy="280" r="1.2"/><circle cx="480" cy="280" r="1.2"/><circle cx="520" cy="280" r="1.2"/><circle cx="560" cy="280" r="1.2"/><circle cx="600" cy="280" r="1.2"/><circle cx="640" cy="280" r="1.2"/><circle cx="680" cy="280" r="1.2"/><circle cx="720" cy="280" r="1.2"/><circle cx="760" cy="280" r="1.2"/>
    <circle cx="40" cy="320" r="1.2"/><circle cx="80" cy="320" r="1.2"/><circle cx="120" cy="320" r="1.2"/><circle cx="160" cy="320" r="1.2"/><circle cx="200" cy="320" r="1.2"/><circle cx="240" cy="320" r="1.2"/><circle cx="280" cy="320" r="1.2"/><circle cx="320" cy="320" r="1.2"/><circle cx="360" cy="320" r="1.2"/><circle cx="400" cy="320" r="1.2"/><circle cx="440" cy="320" r="1.2"/><circle cx="480" cy="320" r="1.2"/><circle cx="520" cy="320" r="1.2"/><circle cx="560" cy="320" r="1.2"/><circle cx="600" cy="320" r="1.2"/><circle cx="640" cy="320" r="1.2"/><circle cx="680" cy="320" r="1.2"/><circle cx="720" cy="320" r="1.2"/><circle cx="760" cy="320" r="1.2"/>
    <circle cx="40" cy="360" r="1.2"/><circle cx="80" cy="360" r="1.2"/><circle cx="120" cy="360" r="1.2"/><circle cx="160" cy="360" r="1.2"/><circle cx="200" cy="360" r="1.2"/><circle cx="240" cy="360" r="1.2"/><circle cx="280" cy="360" r="1.2"/><circle cx="320" cy="360" r="1.2"/><circle cx="360" cy="360" r="1.2"/><circle cx="400" cy="360" r="1.2"/><circle cx="440" cy="360" r="1.2"/><circle cx="480" cy="360" r="1.2"/><circle cx="520" cy="360" r="1.2"/><circle cx="560" cy="360" r="1.2"/><circle cx="600" cy="360" r="1.2"/><circle cx="640" cy="360" r="1.2"/><circle cx="680" cy="360" r="1.2"/><circle cx="720" cy="360" r="1.2"/><circle cx="760" cy="360" r="1.2"/>
    <circle cx="40" cy="400" r="1.2"/><circle cx="80" cy="400" r="1.2"/><circle cx="120" cy="400" r="1.2"/><circle cx="160" cy="400" r="1.2"/><circle cx="200" cy="400" r="1.2"/><circle cx="240" cy="400" r="1.2"/><circle cx="280" cy="400" r="1.2"/><circle cx="320" cy="400" r="1.2"/><circle cx="360" cy="400" r="1.2"/><circle cx="400" cy="400" r="1.2"/><circle cx="440" cy="400" r="1.2"/><circle cx="480" cy="400" r="1.2"/><circle cx="520" cy="400" r="1.2"/><circle cx="560" cy="400" r="1.2"/><circle cx="600" cy="400" r="1.2"/><circle cx="640" cy="400" r="1.2"/><circle cx="680" cy="400" r="1.2"/><circle cx="720" cy="400" r="1.2"/><circle cx="760" cy="400" r="1.2"/>
    <circle cx="40" cy="440" r="1.2"/><circle cx="80" cy="440" r="1.2"/><circle cx="120" cy="440" r="1.2"/><circle cx="160" cy="440" r="1.2"/><circle cx="200" cy="440" r="1.2"/><circle cx="240" cy="440" r="1.2"/><circle cx="280" cy="440" r="1.2"/><circle cx="320" cy="440" r="1.2"/><circle cx="360" cy="440" r="1.2"/><circle cx="400" cy="440" r="1.2"/><circle cx="440" cy="440" r="1.2"/><circle cx="480" cy="440" r="1.2"/><circle cx="520" cy="440" r="1.2"/><circle cx="560" cy="440" r="1.2"/><circle cx="600" cy="440" r="1.2"/><circle cx="640" cy="440" r="1.2"/><circle cx="680" cy="440" r="1.2"/><circle cx="720" cy="440" r="1.2"/><circle cx="760" cy="440" r="1.2"/>
    <circle cx="40" cy="480" r="1.2"/><circle cx="80" cy="480" r="1.2"/><circle cx="120" cy="480" r="1.2"/><circle cx="160" cy="480" r="1.2"/><circle cx="200" cy="480" r="1.2"/><circle cx="240" cy="480" r="1.2"/><circle cx="280" cy="480" r="1.2"/><circle cx="320" cy="480" r="1.2"/><circle cx="360" cy="480" r="1.2"/><circle cx="400" cy="480" r="1.2"/><circle cx="440" cy="480" r="1.2"/><circle cx="480" cy="480" r="1.2"/><circle cx="520" cy="480" r="1.2"/><circle cx="560" cy="480" r="1.2"/><circle cx="600" cy="480" r="1.2"/><circle cx="640" cy="480" r="1.2"/><circle cx="680" cy="480" r="1.2"/><circle cx="720" cy="480" r="1.2"/><circle cx="760" cy="480" r="1.2"/>
    <circle cx="40" cy="520" r="1.2"/><circle cx="80" cy="520" r="1.2"/><circle cx="120" cy="520" r="1.2"/><circle cx="160" cy="520" r="1.2"/><circle cx="200" cy="520" r="1.2"/><circle cx="240" cy="520" r="1.2"/><circle cx="280" cy="520" r="1.2"/><circle cx="320" cy="520" r="1.2"/><circle cx="360" cy="520" r="1.2"/><circle cx="400" cy="520" r="1.2"/><circle cx="440" cy="520" r="1.2"/><circle cx="480" cy="520" r="1.2"/><circle cx="520" cy="520" r="1.2"/><circle cx="560" cy="520" r="1.2"/><circle cx="600" cy="520" r="1.2"/><circle cx="640" cy="520" r="1.2"/><circle cx="680" cy="520" r="1.2"/><circle cx="720" cy="520" r="1.2"/><circle cx="760" cy="520" r="1.2"/>
    <circle cx="40" cy="560" r="1.2"/><circle cx="80" cy="560" r="1.2"/><circle cx="120" cy="560" r="1.2"/><circle cx="160" cy="560" r="1.2"/><circle cx="200" cy="560" r="1.2"/><circle cx="240" cy="560" r="1.2"/><circle cx="280" cy="560" r="1.2"/><circle cx="320" cy="560" r="1.2"/><circle cx="360" cy="560" r="1.2"/><circle cx="400" cy="560" r="1.2"/><circle cx="440" cy="560" r="1.2"/><circle cx="480" cy="560" r="1.2"/><circle cx="520" cy="560" r="1.2"/><circle cx="560" cy="560" r="1.2"/><circle cx="600" cy="560" r="1.2"/><circle cx="640" cy="560" r="1.2"/><circle cx="680" cy="560" r="1.2"/><circle cx="720" cy="560" r="1.2"/><circle cx="760" cy="560" r="1.2"/>
    <circle cx="40" cy="600" r="1.2"/><circle cx="80" cy="600" r="1.2"/><circle cx="120" cy="600" r="1.2"/><circle cx="160" cy="600" r="1.2"/><circle cx="200" cy="600" r="1.2"/><circle cx="240" cy="600" r="1.2"/><circle cx="280" cy="600" r="1.2"/><circle cx="320" cy="600" r="1.2"/><circle cx="360" cy="600" r="1.2"/><circle cx="400" cy="600" r="1.2"/><circle cx="440" cy="600" r="1.2"/><circle cx="480" cy="600" r="1.2"/><circle cx="520" cy="600" r="1.2"/><circle cx="560" cy="600" r="1.2"/><circle cx="600" cy="600" r="1.2"/><circle cx="640" cy="600" r="1.2"/><circle cx="680" cy="600" r="1.2"/><circle cx="720" cy="600" r="1.2"/><circle cx="760" cy="600" r="1.2"/>
    <circle cx="40" cy="640" r="1.2"/><circle cx="80" cy="640" r="1.2"/><circle cx="120" cy="640" r="1.2"/><circle cx="160" cy="640" r="1.2"/><circle cx="200" cy="640" r="1.2"/><circle cx="240" cy="640" r="1.2"/><circle cx="280" cy="640" r="1.2"/><circle cx="320" cy="640" r="1.2"/><circle cx="360" cy="640" r="1.2"/><circle cx="400" cy="640" r="1.2"/><circle cx="440" cy="640" r="1.2"/><circle cx="480" cy="640" r="1.2"/><circle cx="520" cy="640" r="1.2"/><circle cx="560" cy="640" r="1.2"/><circle cx="600" cy="640" r="1.2"/><circle cx="640" cy="640" r="1.2"/><circle cx="680" cy="640" r="1.2"/><circle cx="720" cy="640" r="1.2"/><circle cx="760" cy="640" r="1.2"/>
    <circle cx="40" cy="680" r="1.2"/><circle cx="80" cy="680" r="1.2"/><circle cx="120" cy="680" r="1.2"/><circle cx="160" cy="680" r="1.2"/><circle cx="200" cy="680" r="1.2"/><circle cx="240" cy="680" r="1.2"/><circle cx="280" cy="680" r="1.2"/><circle cx="320" cy="680" r="1.2"/><circle cx="360" cy="680" r="1.2"/><circle cx="400" cy="680" r="1.2"/><circle cx="440" cy="680" r="1.2"/><circle cx="480" cy="680" r="1.2"/><circle cx="520" cy="680" r="1.2"/><circle cx="560" cy="680" r="1.2"/><circle cx="600" cy="680" r="1.2"/><circle cx="640" cy="680" r="1.2"/><circle cx="680" cy="680" r="1.2"/><circle cx="720" cy="680" r="1.2"/><circle cx="760" cy="680" r="1.2"/>
    <circle cx="40" cy="720" r="1.2"/><circle cx="80" cy="720" r="1.2"/><circle cx="120" cy="720" r="1.2"/><circle cx="160" cy="720" r="1.2"/><circle cx="200" cy="720" r="1.2"/><circle cx="240" cy="720" r="1.2"/><circle cx="280" cy="720" r="1.2"/><circle cx="320" cy="720" r="1.2"/><circle cx="360" cy="720" r="1.2"/><circle cx="400" cy="720" r="1.2"/><circle cx="440" cy="720" r="1.2"/><circle cx="480" cy="720" r="1.2"/><circle cx="520" cy="720" r="1.2"/><circle cx="560" cy="720" r="1.2"/><circle cx="600" cy="720" r="1.2"/><circle cx="640" cy="720" r="1.2"/><circle cx="680" cy="720" r="1.2"/><circle cx="720" cy="720" r="1.2"/><circle cx="760" cy="720" r="1.2"/>
    <circle cx="40" cy="760" r="1.2"/><circle cx="80" cy="760" r="1.2"/><circle cx="120" cy="760" r="1.2"/><circle cx="160" cy="760" r="1.2"/><circle cx="200" cy="760" r="1.2"/><circle cx="240" cy="760" r="1.2"/><circle cx="280" cy="760" r="1.2"/><circle cx="320" cy="760" r="1.2"/><circle cx="360" cy="760" r="1.2"/><circle cx="400" cy="760" r="1.2"/><circle cx="440" cy="760" r="1.2"/><circle cx="480" cy="760" r="1.2"/><circle cx="520" cy="760" r="1.2"/><circle cx="560" cy="760" r="1.2"/><circle cx="600" cy="760" r="1.2"/><circle cx="640" cy="760" r="1.2"/><circle cx="680" cy="760" r="1.2"/><circle cx="720" cy="760" r="1.2"/><circle cx="760" cy="760" r="1.2"/>
    <circle cx="40" cy="800" r="1.2"/><circle cx="80" cy="800" r="1.2"/><circle cx="120" cy="800" r="1.2"/><circle cx="160" cy="800" r="1.2"/><circle cx="200" cy="800" r="1.2"/><circle cx="240" cy="800" r="1.2"/><circle cx="280" cy="800" r="1.2"/><circle cx="320" cy="800" r="1.2"/><circle cx="360" cy="800" r="1.2"/><circle cx="400" cy="800" r="1.2"/><circle cx="440" cy="800" r="1.2"/><circle cx="480" cy="800" r="1.2"/><circle cx="520" cy="800" r="1.2"/><circle cx="560" cy="800" r="1.2"/><circle cx="600" cy="800" r="1.2"/><circle cx="640" cy="800" r="1.2"/><circle cx="680" cy="800" r="1.2"/><circle cx="720" cy="800" r="1.2"/><circle cx="760" cy="800" r="1.2"/>
    <circle cx="40" cy="840" r="1.2"/><circle cx="80" cy="840" r="1.2"/><circle cx="120" cy="840" r="1.2"/><circle cx="160" cy="840" r="1.2"/><circle cx="200" cy="840" r="1.2"/><circle cx="240" cy="840" r="1.2"/><circle cx="280" cy="840" r="1.2"/><circle cx="320" cy="840" r="1.2"/><circle cx="360" cy="840" r="1.2"/><circle cx="400" cy="840" r="1.2"/><circle cx="440" cy="840" r="1.2"/><circle cx="480" cy="840" r="1.2"/><circle cx="520" cy="840" r="1.2"/><circle cx="560" cy="840" r="1.2"/><circle cx="600" cy="840" r="1.2"/><circle cx="640" cy="840" r="1.2"/><circle cx="680" cy="840" r="1.2"/><circle cx="720" cy="840" r="1.2"/><circle cx="760" cy="840" r="1.2"/>
    <circle cx="40" cy="880" r="1.2"/><circle cx="80" cy="880" r="1.2"/><circle cx="120" cy="880" r="1.2"/><circle cx="160" cy="880" r="1.2"/><circle cx="200" cy="880" r="1.2"/><circle cx="240" cy="880" r="1.2"/><circle cx="280" cy="880" r="1.2"/><circle cx="320" cy="880" r="1.2"/><circle cx="360" cy="880" r="1.2"/><circle cx="400" cy="880" r="1.2"/><circle cx="440" cy="880" r="1.2"/><circle cx="480" cy="880" r="1.2"/><circle cx="520" cy="880" r="1.2"/><circle cx="560" cy="880" r="1.2"/><circle cx="600" cy="880" r="1.2"/><circle cx="640" cy="880" r="1.2"/><circle cx="680" cy="880" r="1.2"/><circle cx="720" cy="880" r="1.2"/><circle cx="760" cy="880" r="1.2"/>
  </g>

  <!-- Atmospheric rings — slightly more visible -->
  <circle cx="400" cy="450" r="320" fill="none" stroke="#3a6e4a" stroke-width="0.6" opacity="0.35"/>
  <circle cx="400" cy="450" r="220" fill="none" stroke="#3a6e4a" stroke-width="0.5" opacity="0.25"/>
  <circle cx="400" cy="450" r="120" fill="none" stroke="#3a6e4a" stroke-width="0.4" opacity="0.15"/>

  <!-- Corner accent arcs -->
  <path d="M0 0 Q130 0 130 130" fill="none" stroke="#3a6e4a" stroke-width="1" opacity="0.4"/>
  <path d="M800 0 Q670 0 670 130" fill="none" stroke="#3a6e4a" stroke-width="1" opacity="0.4"/>
  <path d="M0 900 Q130 900 130 770" fill="none" stroke="#3a6e4a" stroke-width="1" opacity="0.4"/>
  <path d="M800 900 Q670 900 670 770" fill="none" stroke="#3a6e4a" stroke-width="1" opacity="0.4"/>

  <!-- Subtle leaf silhouettes -->
  <path d="M160 200 C145 185 130 178 118 166 C132 170 148 178 160 200Z" fill="#3a6e4a" opacity="0.3"/>
  <path d="M620 300 C635 285 648 278 660 266 C646 270 632 278 620 300Z" fill="#3a6e4a" opacity="0.25"/>
  <path d="M200 680 C187 665 172 658 160 646 C174 650 190 658 200 680Z" fill="#3a6e4a" opacity="0.25"/>
  <path d="M580 720 C595 705 608 698 620 686 C606 690 592 698 580 720Z" fill="#3a6e4a" opacity="0.25"/>
  <path d="M320 150 C308 136 295 130 284 118 C297 123 311 130 320 150Z" fill="#3a6e4a" opacity="0.2"/>
  <path d="M500 780 C514 766 527 760 538 748 C525 752 511 760 500 780Z" fill="#3a6e4a" opacity="0.2"/>
</svg>
